<svg width="81" height="65" viewBox="0 0 81 65" fill="none" xmlns="http://www.w3.org/2000/svg">
<g id="Frame">
<g id="Group">
<g id="Group_2">
<g id="Group_3">
<path id="Vector" d="M43.4657 59.5457V16.2297" stroke="black" stroke-width="1.955" stroke-linejoin="bevel"/>
</g>
</g>
<g id="Group_4">
<g id="Group_5">
<path id="Vector_2" d="M26.2126 59.5457V16.2297" stroke="#FFB18F" stroke-width="2.04" stroke-linejoin="bevel"/>
</g>
</g>
<g id="Group_6">
<g id="Group_7">
<path id="Vector_3" d="M8.31158 59.5457V16.2297" stroke="black" stroke-width="2.04" stroke-linejoin="bevel"/>
</g>
</g>
<g id="Group_8">
<g id="Group_9">
<path id="Vector_4" d="M8.36326 59.7391C5.70152 59.7391 3.54376 57.5746 3.54376 54.9047C3.54376 52.2347 5.70152 50.0703 8.36326 50.0703C11.025 50.0703 13.1828 52.2347 13.1828 54.9047C13.1828 57.5746 11.025 59.7391 8.36326 59.7391Z" fill="white"/>
<path id="Vector_5" d="M8.36326 59.7391C5.70152 59.7391 3.54376 57.5746 3.54376 54.9047C3.54376 52.2347 5.70152 50.0703 8.36326 50.0703C11.025 50.0703 13.1828 52.2347 13.1828 54.9047C13.1828 57.5746 11.025 59.7391 8.36326 59.7391Z" stroke="#1D1D1B" stroke-width="2.55"/>
</g>
</g>
<g id="Group_10">
<g id="Group_11">
<path id="Vector_6" d="M26.2643 26.6613C23.6025 26.6613 21.4448 24.4969 21.4448 21.8269C21.4448 19.157 23.6025 16.9926 26.2643 16.9926C28.926 16.9926 31.0838 19.157 31.0838 21.8269C31.0838 24.4969 28.926 26.6613 26.2643 26.6613Z" fill="#FFB18F"/>
</g>
</g>
<g id="Group_12">
<g id="Group_13">
<path id="Vector_7" d="M1.61664 37.3079L8.43348 44.1458L15.2489 37.3079L8.43348 30.4714L1.61664 37.3079Z" fill="black"/>
</g>
</g>
<g id="Group_14">
<g id="Group_15">
<path id="Vector_8" d="M20.4221 39.693L26.2642 45.5531L32.1063 39.693L26.2642 33.8328L20.4221 39.693Z" fill="white"/>
<path id="Vector_9" d="M20.4221 39.693L26.2642 45.5531L32.1063 39.693L26.2642 33.8328L20.4221 39.693Z" stroke="#FFB18F" stroke-width="2.55"/>
</g>
</g>
<g id="Group_16">
<g id="Group_17">
<path id="Vector_10" d="M38.6572 28.6609C38.6572 25.9951 40.8191 23.8265 43.4767 23.8265C46.1343 23.8265 48.2962 25.9951 48.2962 28.6609C48.2962 31.3267 46.1343 33.4953 43.4767 33.4953C40.8191 33.4953 38.6572 31.3267 38.6572 28.6609Z" fill="white"/>
<path id="Vector_11" d="M38.6572 28.6609C38.6572 25.9951 40.8191 23.8265 43.4767 23.8265C46.1343 23.8265 48.2962 25.9951 48.2962 28.6609C48.2962 31.3267 46.1343 33.4953 43.4767 33.4953C40.8191 33.4953 38.6572 31.3267 38.6572 28.6609Z" stroke="#1D1D1B" stroke-width="2.55"/>
</g>
</g>
<g id="Group_18">
<g id="Group_19">
<path id="Vector_12" d="M38.6572 50.0703C38.6572 47.4045 40.8191 45.2359 43.4767 45.2359C46.1343 45.2359 48.2962 47.4045 48.2962 50.0703C48.2962 52.7361 46.1343 54.9047 43.4767 54.9047C40.8191 54.9047 38.6572 52.7361 38.6572 50.0703Z" fill="black"/>
</g>
</g>
</g>
</g>
</svg>
