<svg width="80" height="64" viewBox="0 0 80 64" fill="none" xmlns="http://www.w3.org/2000/svg">
<g id="Frame">
<g id="Group">
<g id="Group_2">
<g id="Group_3">
<path id="Vector" d="M25.1918 12.9134H31.9118V6.19336H25.1918V12.9134ZM41.24 6.19336H31.9916C28.236 6.19336 25.1918 9.23752 25.1918 12.9932C25.1918 16.748 28.236 19.793 31.9916 19.793H41.24C44.9957 19.793 48.0398 16.748 48.0398 12.9932C48.0398 9.23752 44.9957 6.19336 41.24 6.19336Z" fill="#FFB18F"/>
<path id="Vector_2" d="M41.24 6.19336H31.9916C28.236 6.19336 25.1918 9.23752 25.1918 12.9932C25.1918 16.748 28.236 19.793 31.9916 19.793H41.24C44.9957 19.793 48.0398 16.748 48.0398 12.9932C48.0398 9.23752 44.9957 6.19336 41.24 6.19336Z" fill="#FFB18F"/>
</g>
</g>
<g id="Group_4" opacity="0.950186">
<g id="Group_5">
<path id="Vector_3" d="M32.9341 12.9932C32.9341 13.7399 32.3301 14.3447 31.5834 14.3447C30.8366 14.3447 30.231 13.7399 30.231 12.9932C30.231 12.2464 30.8366 11.6416 31.5834 11.6416C32.3301 11.6416 32.9341 12.2464 32.9341 12.9932Z" fill="white"/>
</g>
</g>
<g id="Group_6">
<g id="Group_7">
<path id="Vector_4" d="M37.9657 12.9932C37.9657 13.7399 37.3609 14.3447 36.615 14.3447C35.8682 14.3447 35.2626 13.7399 35.2626 12.9932C35.2626 12.2464 35.8682 11.6416 36.615 11.6416C37.3609 11.6416 37.9657 12.2464 37.9657 12.9932Z" fill="white"/>
</g>
</g>
<g id="Group_8">
<g id="Group_9">
<path id="Vector_5" d="M42.9981 12.9932C42.9981 13.7399 42.3933 14.3447 41.6474 14.3447C40.9007 14.3447 40.295 13.7399 40.295 12.9932C40.295 12.2464 40.9007 11.6416 41.6474 11.6416C42.3933 11.6416 42.9981 12.2464 42.9981 12.9932Z" fill="white"/>
</g>
</g>
<g id="Group_10">
<g id="Group_11">
<path id="Vector_6" d="M29.7303 45.3281C29.7303 41.5725 26.6861 38.5283 22.9305 38.5283H13.6821C9.92642 38.5283 6.88226 41.5725 6.88226 45.3281C6.88226 49.0838 9.92642 52.1279 13.6821 52.1279H29.7143V45.7683C29.7235 45.6221 29.7303 45.476 29.7303 45.3281Z" stroke="#FFB18F" stroke-width="2.5137"/>
</g>
</g>
<g id="Group_12">
<g id="Group_13">
<path id="Vector_7" d="M14.2843 45.3281C14.2843 46.0749 13.6804 46.6797 12.9336 46.6797C12.1869 46.6797 11.5812 46.0749 11.5812 45.3281C11.5812 44.5814 12.1869 43.9766 12.9336 43.9766C13.6804 43.9766 14.2843 44.5814 14.2843 45.3281Z" fill="#FFB18F"/>
</g>
</g>
<g id="Group_14">
<g id="Group_15">
<path id="Vector_8" d="M19.3193 45.3281C19.3193 46.0749 18.7145 46.6797 17.9686 46.6797C17.2218 46.6797 16.6162 46.0749 16.6162 45.3281C16.6162 44.5814 17.2218 43.9766 17.9686 43.9766C18.7145 43.9766 19.3193 44.5814 19.3193 45.3281Z" fill="#FFB18F"/>
</g>
</g>
<g id="Group_16">
<g id="Group_17">
<path id="Vector_9" d="M24.3501 45.3281C24.3501 46.0749 23.7453 46.6797 22.9993 46.6797C22.2526 46.6797 21.6469 46.0749 21.6469 45.3281C21.6469 44.5814 22.2526 43.9766 22.9993 43.9766C23.7453 43.9766 24.3501 44.5814 24.3501 45.3281Z" fill="#FFB18F"/>
</g>
</g>
<g id="Group_18">
<g id="Group_19">
<path id="Vector_10" d="M43.1503 24.2476C48.2542 24.2476 52.4063 28.3997 52.4063 33.5027C52.4063 36.0908 51.3647 38.4915 49.4738 40.2614L49.0791 40.6301V41.1686L49.0799 54.4347H40.6463V48.1859V46.9427H39.4022H33.8826L33.8809 40.6444L33.8792 39.4012H32.6369H31.1963L33.7961 33.5926L33.8935 33.3734L33.9028 33.1331C33.9968 30.74 35.0015 28.5039 36.7302 26.8382C38.4631 25.1674 40.7429 24.2476 43.1503 24.2476ZM43.152 23.0044C37.4938 23.0044 32.8813 27.4799 32.6612 33.0844L29.2769 40.6444H32.6369L32.6394 48.1859H39.4022L39.4031 55.7762H50.3231V41.1686C52.3702 39.2534 53.6503 36.5276 53.6503 33.5027C53.6503 27.705 48.9497 23.0044 43.152 23.0044ZM43.1503 24.2476C48.2542 24.2476 52.4063 28.3997 52.4063 33.5027C52.4063 36.0908 51.3647 38.4915 49.4738 40.2614L49.0791 40.6301V41.1686L49.0799 54.4347H40.6463V48.1859V46.9427H39.4022H33.8826L33.8809 40.6444L33.8792 39.4012H32.6369H31.1963L33.7961 33.5926L33.8935 33.3734L33.9028 33.1331C33.9968 30.74 35.0015 28.5039 36.7302 26.8382C38.4631 25.1674 40.7429 24.2476 43.1503 24.2476Z" fill="white"/>
<path id="Vector_11" d="M43.152 23.0044C37.4938 23.0044 32.8813 27.4799 32.6612 33.0844L29.2769 40.6444H32.6369L32.6394 48.1859H39.4022L39.4031 55.7762H50.3231V41.1686C52.3702 39.2534 53.6503 36.5276 53.6503 33.5027C53.6503 27.705 48.9497 23.0044 43.152 23.0044ZM43.1503 24.2476C48.2542 24.2476 52.4063 28.3997 52.4063 33.5027C52.4063 36.0908 51.3647 38.4915 49.4738 40.2614L49.0791 40.6301V41.1686L49.0799 54.4347H40.6463V48.1859V46.9427H39.4022H33.8826L33.8809 40.6444L33.8792 39.4012H32.6369H31.1963L33.7961 33.5926L33.8935 33.3734L33.9028 33.1331C33.9968 30.74 35.0015 28.5039 36.7302 26.8382C38.4631 25.1674 40.7429 24.2476 43.1503 24.2476Z" fill="black"/>
</g>
</g>
<g id="Group_20">
<g id="Group_21">
<path id="Vector_12" d="M12.8935 3.62305C18.5518 3.62305 23.1634 8.09857 23.3826 13.703L26.767 21.263H23.407L23.4044 28.8046H16.6416V35.6934H5.7216V21.7872C3.67452 19.872 2.3952 17.1462 2.3952 14.1214C2.3952 8.32369 7.095 3.62305 12.8935 3.62305Z" fill="black"/>
</g>
</g>
</g>
</g>
</svg>
