<svg width="81" height="65" viewBox="0 0 81 65" fill="none" xmlns="http://www.w3.org/2000/svg">
<g id="Frame">
<g id="Group">
<g id="Group_2">
<g id="Group_3">
<path id="Vector" d="M21.2706 13.4062V14.1538H22.0158H21.2706V33.9446H22.761V14.9013H73.4346V44.9612H29.6414H29.365L29.1556 45.1421L29.6414 45.7087L29.1556 45.1421L22.761 50.6489V33.9446H21.2706V52.2762V53.9028L22.5009 52.8436L29.9172 46.4562H74.1798V45.7087V46.4562H74.925V14.1538H74.1798V13.4062H21.2706ZM74.1798 14.1538H74.925V13.4062H74.1798V14.1538Z" fill="black"/>
</g>
</g>
<g id="Group_4">
<g id="Group_5">
<path id="Vector_2" d="M55.5401 29.8505L48.8333 23.123L42.125 29.8505L48.8333 36.5795L55.5401 29.8505ZM46.9159 31.7738C45.8577 30.7124 45.8577 28.9901 46.9159 27.9287C47.9741 26.8672 49.691 26.8672 50.7492 27.9287C51.8074 28.9901 51.8074 30.7124 50.7492 31.7738C49.691 32.8353 47.9741 32.8353 46.9159 31.7738Z" fill="#EAC955"/>
</g>
</g>
<g id="Group_6">
<g id="Group_7">
<path id="Vector_3" d="M28.154 34.7108L33.3153 25.527L38.6047 34.7108H28.154Z" stroke="black" stroke-width="2.76"/>
</g>
</g>
<g id="Group_8">
<g id="Group_9">
<path id="Vector_4" d="M70.4538 29.8512C70.4538 26.548 67.7845 23.8712 64.4922 23.8712C61.1999 23.8712 58.5306 26.548 58.5306 29.8512C58.5306 33.1537 61.1999 35.8312 64.4922 35.8312C67.7845 35.8312 70.4538 33.1537 70.4538 29.8512ZM61.4734 33.0386V26.6632H67.511V33.0386H61.4734Z" fill="black"/>
</g>
</g>
<g id="Group_10">
<g id="Group_11">
<path id="Vector_5" d="M0.404999 60.4988H16.7994V44.0538H0.404999V60.4988Z" fill="black"/>
</g>
</g>
<g id="Group_12">
<g id="Group_13">
<path id="Vector_6" d="M8.6022 53.0237C6.1326 53.0237 4.131 55.0315 4.131 57.5087H13.0734C13.0734 55.0315 11.0718 53.0237 8.6022 53.0237Z" fill="white"/>
</g>
</g>
<g id="Group_14">
<g id="Group_15">
<path id="Vector_7" d="M8.6022 47.0438C9.837 47.0438 10.8378 48.0477 10.8378 49.2863C10.8378 50.5249 9.837 51.5288 8.6022 51.5288C7.3674 51.5288 6.3666 50.5249 6.3666 49.2863C6.3666 48.0477 7.3674 47.0438 8.6022 47.0438Z" fill="white"/>
</g>
</g>
</g>
</g>
</svg>
